<?xml version="1.0" encoding="UTF-8" standalone="no"?>
<!-- Generator: Adobe Illustrator 27.5.0, SVG Export Plug-In . SVG Version: 6.00 Build 0)  -->

<svg
   version="1.1"
   id="Layer_1"
   x="0px"
   y="0px"
   viewBox="0 0 1040.8345 795.35645"
   xml:space="preserve"
   sodipodi:docname="21852411_sysadmin_03.svg"
   width="1040.8345"
   height="795.35645"
   inkscape:export-filename="it.png"
   inkscape:export-xdpi="96"
   inkscape:export-ydpi="96"
   xmlns:inkscape="http://www.inkscape.org/namespaces/inkscape"
   xmlns:sodipodi="http://sodipodi.sourceforge.net/DTD/sodipodi-0.dtd"
   xmlns="http://www.w3.org/2000/svg"
   xmlns:svg="http://www.w3.org/2000/svg"><defs
   id="defs230" /><sodipodi:namedview
   id="namedview230"
   pagecolor="#ffffff"
   bordercolor="#000000"
   borderopacity="0.25"
   inkscape:showpageshadow="2"
   inkscape:pageopacity="0.0"
   inkscape:pagecheckerboard="0"
   inkscape:deskcolor="#d1d1d1"><inkscape:page
     x="0"
     y="0"
     width="1040.8345"
     height="795.35645"
     id="page2"
     margin="0"
     bleed="0" /></sodipodi:namedview>

<g
   id="g230"
   transform="translate(-79.582603,-65.321559)">
	<g
   id="g1">
		<path
   style="fill:#d3e5f1"
   d="M 1119.543,492.07 C 1112.901,404.603 1063.297,327.372 1008.23,261.988 982.153,231.025 954.678,200.934 926.206,172.156 894.463,140.072 861.197,110.79 821.09,89.572 781.05,68.39 734.052,60.177 689.367,68.556 c -48.918,9.172 -91.875,33.496 -133.656,59.39 -83.979,52.046 -167.212,105.336 -250.794,158.018 -36.727,23.15 -74.421,45.324 -109.336,71.193 -17.971,13.315 -34.479,27.98 -50.018,44.058 -15.484,16.021 -27.91,33.567 -38.787,52.982 -23.629,42.178 -29.842,92.041 -26.248,139.653 3.615,47.891 19.271,94.661 38.125,138.541 5.39,12.544 40.025,77.962 48.777,81.558 6.795,2.792 807.764,20.214 828.029,9.524 22.001,-11.604 40.687,-28.227 53.731,-49.528 11.646,-19.018 20.172,-39.027 27.421,-60.051 7.575,-21.971 14.985,-44.03 21.549,-66.327 14.957,-50.805 25.426,-102.266 21.383,-155.497 z"
   id="path1" />
		<ellipse
   style="fill:#4b8ab7"
   cx="597.09802"
   cy="816.13702"
   rx="515.75"
   ry="44.541"
   id="ellipse1" />
	</g>
	<g
   id="g5">
		<path
   style="fill:#b7d2e5"
   d="M 918.003,729.247 H 890.5 c -3.092,0 -5.621,-2.53 -5.621,-5.621 v -27.503 c 0,-3.092 2.53,-5.621 5.621,-5.621 h 27.503 c 3.092,0 5.621,2.53 5.621,5.621 v 27.503 c 0,3.092 -2.53,5.621 -5.621,5.621 z"
   id="path2" />
		<g
   id="g4">
			<circle
   style="fill:#9abfdb"
   cx="904.25098"
   cy="709.875"
   r="10.43"
   id="circle2" />
			<g
   id="g3">
				<path
   style="fill:#b7d2e5"
   d="m 898.523,709.875 c 0,-0.686 0.556,-1.242 1.242,-1.242 0.686,0 1.242,0.556 1.242,1.242 0,0.686 -0.556,1.242 -1.242,1.242 -0.686,0 -1.242,-0.556 -1.242,-1.242 z"
   id="path3" />
				<circle
   style="fill:#b7d2e5"
   cx="908.737"
   cy="709.875"
   r="1.242"
   id="circle3" />
			</g>
		</g>
	</g>
	<g
   id="g9">
		<path
   style="fill:#b7d2e5"
   d="m 868.031,729.247 h -27.503 c -3.092,0 -5.621,-2.53 -5.621,-5.621 v -27.503 c 0,-3.092 2.53,-5.621 5.621,-5.621 h 27.503 c 3.092,0 5.621,2.53 5.621,5.621 v 27.503 c 10e-4,3.092 -2.529,5.621 -5.621,5.621 z"
   id="path5" />
		<g
   id="g8">
			<circle
   style="fill:#5a95bd"
   cx="854.28003"
   cy="709.875"
   r="10.43"
   id="circle5" />
			<g
   id="g7">
				<path
   style="fill:#5a95bd"
   d="m 850.078,711.081 c 0.549,-0.129 0.959,-0.619 0.959,-1.207 0,-0.686 -0.556,-1.242 -1.242,-1.242 -0.385,0 -0.726,0.179 -0.953,0.455 -0.018,-0.026 -0.034,-0.052 -0.052,-0.078 -1.024,-1.491 -3.228,0.254 -2.206,1.742 10.269,14.957 1.043,36.81 -14.769,43.534 -19.079,8.114 -41.809,-1.966 -52.792,-18.464 -3.057,-4.593 -5.278,-9.824 -6.179,-15.279 -0.985,-5.961 0.002,-11.903 0.159,-17.882 0.145,-5.503 -0.618,-10.69 -3.408,-15.506 -2.653,-4.58 -6.319,-8.524 -8.356,-13.458 -4.317,-10.455 -1.811,-22.283 -0.069,-33.017 1.75,-10.783 2.488,-21.607 1.769,-32.521 -1.599,-24.289 -9.782,-47.992 -23.526,-68.077 -1.021,-1.493 -3.225,0.253 -2.206,1.742 13.248,19.361 21.121,42.168 22.866,65.552 0.879,11.774 -0.117,23.325 -2.019,34.945 -1.82,11.119 -3.835,23.337 1.245,33.93 2.393,4.991 6.371,9.008 8.77,13.985 2.87,5.953 2.16,12.516 1.736,18.893 -0.375,5.64 -0.254,11.101 1.363,16.557 1.539,5.19 4.135,10.051 7.41,14.352 12.032,15.801 34.616,24.79 53.713,17.091 17.211,-6.935 27.127,-29.487 17.787,-46.047 z"
   id="path6" />
				<path
   style="fill:#5a95bd"
   d="m 857.524,709.875 c 0,-0.686 0.556,-1.242 1.242,-1.242 0.686,0 1.242,0.556 1.242,1.242 0,0.686 -0.556,1.242 -1.242,1.242 -0.686,0 -1.242,-0.556 -1.242,-1.242 z"
   id="path7" />
			</g>
		</g>
	</g>
	<g
   id="g26">
		<g
   id="g25">
			<g
   id="g10">
				<path
   style="fill:#507087"
   d="m 205.837,763.402 v 0 c -2.875,0 -5.227,-2.352 -5.227,-5.227 v -72.929 c 0,-2.875 2.352,-5.227 5.227,-5.227 v 0 c 2.875,0 5.227,2.352 5.227,5.227 v 72.929 c 0,2.875 -2.353,5.227 -5.227,5.227 z"
   id="path9" />
				<path
   style="fill:#6f8eaa"
   d="m 203.597,763.402 v 0 c -2.875,0 -5.227,-2.352 -5.227,-5.227 v -72.929 c 0,-2.875 2.352,-5.227 5.227,-5.227 v 0 c 2.875,0 5.227,2.352 5.227,5.227 v 72.929 c -0.001,2.875 -2.353,5.227 -5.227,5.227 z"
   id="path10" />
			</g>
			<g
   id="g12">
				<path
   style="fill:#507087"
   d="m 223.458,763.402 v 0 c -2.875,0 -5.227,-2.352 -5.227,-5.227 v -72.929 c 0,-2.875 2.352,-5.227 5.227,-5.227 v 0 c 2.875,0 5.227,2.352 5.227,5.227 v 72.929 c 0,2.875 -2.352,5.227 -5.227,5.227 z"
   id="path11" />
				<path
   style="fill:#6f8eaa"
   d="m 221.219,763.402 v 0 c -2.875,0 -5.227,-2.352 -5.227,-5.227 v -72.929 c 0,-2.875 2.352,-5.227 5.227,-5.227 v 0 c 2.875,0 5.227,2.352 5.227,5.227 v 72.929 c -0.001,2.875 -2.353,5.227 -5.227,5.227 z"
   id="path12" />
			</g>
			<g
   id="g14">
				<path
   style="fill:#507087"
   d="m 241.08,763.402 v 0 c -2.875,0 -5.227,-2.352 -5.227,-5.227 v -72.929 c 0,-2.875 2.352,-5.227 5.227,-5.227 v 0 c 2.875,0 5.227,2.352 5.227,5.227 v 72.929 c 0,2.875 -2.352,5.227 -5.227,5.227 z"
   id="path13" />
				<path
   style="fill:#6f8eaa"
   d="m 238.84,763.402 v 0 c -2.875,0 -5.227,-2.352 -5.227,-5.227 v -72.929 c 0,-2.875 2.352,-5.227 5.227,-5.227 v 0 c 2.875,0 5.227,2.352 5.227,5.227 v 72.929 c 0,2.875 -2.352,5.227 -5.227,5.227 z"
   id="path14" />
			</g>
			<g
   id="g16">
				<path
   style="fill:#6f8eaa"
   d="m 258.702,763.402 v 0 c -2.875,0 -5.227,-2.352 -5.227,-5.227 v -72.929 c 0,-2.875 2.352,-5.227 5.227,-5.227 v 0 c 2.875,0 5.227,2.352 5.227,5.227 v 72.929 c 0,2.875 -2.352,5.227 -5.227,5.227 z"
   id="path15" />
				<path
   style="fill:#6f8eaa"
   d="m 256.462,763.402 v 0 c -2.875,0 -5.227,-2.352 -5.227,-5.227 v -72.929 c 0,-2.875 2.352,-5.227 5.227,-5.227 v 0 c 2.875,0 5.227,2.352 5.227,5.227 v 72.929 c 0,2.875 -2.352,5.227 -5.227,5.227 z"
   id="path16" />
			</g>
			<g
   id="g18">
				<path
   style="fill:#507087"
   d="m 310.672,763.402 v 0 c 2.875,0 5.227,-2.352 5.227,-5.227 v -72.929 c 0,-2.875 -2.352,-5.227 -5.227,-5.227 v 0 c -2.875,0 -5.227,2.352 -5.227,5.227 v 72.929 c 0,2.875 2.352,5.227 5.227,5.227 z"
   id="path17" />
				<path
   style="fill:#6f8eaa"
   d="m 312.912,763.402 v 0 c 2.875,0 5.227,-2.352 5.227,-5.227 v -72.929 c 0,-2.875 -2.352,-5.227 -5.227,-5.227 v 0 c -2.875,0 -5.227,2.352 -5.227,5.227 v 72.929 c 0,2.875 2.352,5.227 5.227,5.227 z"
   id="path18" />
			</g>
			<g
   id="g20">
				<path
   style="fill:#507087"
   d="m 293.05,763.402 v 0 c 2.875,0 5.227,-2.352 5.227,-5.227 v -72.929 c 0,-2.875 -2.352,-5.227 -5.227,-5.227 v 0 c -2.875,0 -5.227,2.352 -5.227,5.227 v 72.929 c 0,2.875 2.352,5.227 5.227,5.227 z"
   id="path19" />
				<path
   style="fill:#6f8eaa"
   d="m 295.29,763.402 v 0 c 2.875,0 5.227,-2.352 5.227,-5.227 v -72.929 c 0,-2.875 -2.352,-5.227 -5.227,-5.227 v 0 c -2.875,0 -5.227,2.352 -5.227,5.227 v 72.929 c 0,2.875 2.352,5.227 5.227,5.227 z"
   id="path20" />
			</g>
			<g
   id="g22">
				<path
   style="fill:#507087"
   d="m 274.084,763.402 v 0 c 2.875,0 5.227,-2.352 5.227,-5.227 v -72.929 c 0,-2.875 -2.352,-5.227 -5.227,-5.227 v 0 c -2.875,0 -5.227,2.352 -5.227,5.227 v 72.929 c 0,2.875 2.352,5.227 5.227,5.227 z"
   id="path21" />
				<path
   style="fill:#6f8eaa"
   d="m 276.324,763.402 v 0 c 2.875,0 5.227,-2.352 5.227,-5.227 v -72.929 c 0,-2.875 -2.352,-5.227 -5.227,-5.227 v 0 c -2.875,0 -5.227,2.352 -5.227,5.227 v 72.929 c 0,2.875 2.352,5.227 5.227,5.227 z"
   id="path22" />
			</g>
			<rect
   x="198.49001"
   y="753.479"
   style="fill:#6f8eaa"
   width="119.718"
   height="33.971001"
   id="rect22" />
			<rect
   x="198.49001"
   y="657.56403"
   style="fill:#6f8eaa"
   width="119.718"
   height="33.43"
   id="rect23" />
			<ellipse
   style="fill:#6f8eaa"
   cx="258.349"
   cy="787.71399"
   rx="59.859001"
   ry="9.8369999"
   id="ellipse23" />
			<ellipse
   style="fill:#6f8eaa"
   cx="258.349"
   cy="657.92999"
   rx="59.859001"
   ry="9.8369999"
   id="ellipse24" />
			<ellipse
   style="fill:#507087"
   cx="258.349"
   cy="657.02301"
   rx="56.363998"
   ry="6.3979998"
   id="ellipse25" />
		</g>
		<path
   style="fill:#507087"
   d="m 318.208,690.993 v -33.43 h -0.046 c -0.925,-4.151 -17.499,-7.645 -40.314,-8.936 -0.032,11.124 -0.246,22.246 -0.676,33.362 -1.495,38.695 -5.464,77.308 -11.901,115.496 29.797,-0.564 52.936,-4.723 52.936,-9.771 0,-0.088 -0.008,-0.176 -0.022,-0.264 h 0.022 v -33.971 h -0.07 v -62.486 z m -30.385,62.486 h -6.272 v -62.486 h 6.272 z m 17.622,0 h -4.928 v -62.486 h 4.928 z"
   id="path25" />
	</g>
	<g
   id="g32">
		<g
   id="g28">
			<path
   style="fill:#ffffff"
   d="m 854.28,565.6 -0.005,0.038 -1.555,15.459 -0.796,7.903 -0.904,8.957 -20.279,201.223 c -0.192,1.911 -1.803,3.368 -3.729,3.368 h -6.338 c -2.117,0 -3.813,-1.747 -3.747,-3.865 l 6.352,-200.728 0.281,-8.957 0.248,-7.903 0.492,-15.459 V 565.6 Z"
   id="path26" />
			<path
   style="fill:#ffffff"
   d="m 977.706,798.683 c 0.07,2.117 -1.626,3.865 -3.743,3.865 h -6.343 c -1.925,0 -3.537,-1.457 -3.729,-3.368 l -20.274,-201.225 -0.904,-8.957 -0.796,-7.903 -1.555,-15.459 -0.005,-0.038 h 29.98 v 0.038 l 0.492,15.459 0.248,7.903 0.281,8.957 z"
   id="path27" />
			<polygon
   style="fill:#feeded"
   points="824.3,565.637 854.275,565.637 852.72,581.096 851.924,588.999 823.56,588.999 823.808,581.096 "
   id="polygon27" />
			<polygon
   style="fill:#feeded"
   points="971.077,588.999 942.713,588.999 941.917,581.096 940.361,565.637 970.337,565.637 970.829,581.096 "
   id="polygon28" />
		</g>
		<g
   id="g29">
			<path
   style="fill:#feeded"
   d="m 268.863,802.55 h -6.341 c -2.116,0 -3.813,-1.751 -3.746,-3.866 l 7.373,-233.083 h 29.98 l -23.538,233.577 c -0.192,1.914 -1.804,3.372 -3.728,3.372 z"
   id="path28" />
			<path
   style="fill:#feeded"
   d="m 409.471,802.55 h 6.341 c 2.116,0 3.813,-1.751 3.746,-3.866 l -7.373,-233.083 h -29.98 l 23.538,233.577 c 0.192,1.914 1.803,3.372 3.728,3.372 z"
   id="path29" />
		</g>
		<path
   style="fill:#f2b263"
   d="m 260.524,567.045 h 709.832 c 4.139,0 7.495,-3.356 7.495,-7.495 v -29.087 c 0,-5.627 -4.604,-10.231 -10.231,-10.231 H 263.26 c -5.627,0 -10.231,4.604 -10.231,10.231 v 29.087 c 0,4.122 3.373,7.495 7.495,7.495 z"
   id="path30" />
		<path
   style="fill:#ffe989"
   d="m 992.749,516.353 h -60.63 -633.358 -60.629 c -4.791,0 -8.711,3.951 -8.711,8.779 v 17.636 c 0,4.828 3.92,8.779 8.712,8.779 h 58.873 636.872 58.873 c 4.791,0 8.712,-3.951 8.712,-8.779 v -17.636 c 0,-4.828 -3.922,-8.779 -8.714,-8.779 z"
   id="path31" />
		<path
   style="fill:#f2b263"
   d="M 999.592,516.353 H 815.225 v 35.194 h 184.367 c 4.062,0 7.355,-2.849 7.355,-6.363 v -22.467 c -10e-4,-3.514 -3.293,-6.364 -7.355,-6.364 z"
   id="path32" />
	</g>
	<g
   id="g137">
		<rect
   x="641.04303"
   y="417.828"
   style="fill:#9abfdb"
   width="53.943001"
   height="96.214996"
   id="rect32" />
		<path
   style="fill:#b7d2e5"
   d="M 813.843,468.302 H 536.72 V 293.886 h 277.123 c 3.777,0 6.84,3.062 6.84,6.84 v 160.736 c 0,3.778 -3.063,6.84 -6.84,6.84 z"
   id="path33" />
		<path
   style="fill:#ffffff"
   d="M 726.121,517.036 H 609.908 c -3.778,0 -6.84,-3.062 -6.84,-6.84 v -2.565 c 0,-3.777 3.062,-6.84 6.84,-6.84 h 116.213 c 3.778,0 6.84,3.062 6.84,6.84 v 2.565 c 0,3.778 -3.063,6.84 -6.84,6.84 z"
   id="path34" />
		<path
   style="fill:#ffffff"
   d="M 803.156,468.302 H 532.873 c -3.778,0 -6.84,-3.062 -6.84,-6.84 V 300.726 c 0,-3.778 3.062,-6.84 6.84,-6.84 h 270.283 c 3.778,0 6.84,3.062 6.84,6.84 v 160.736 c -10e-4,3.778 -3.063,6.84 -6.84,6.84 z"
   id="path35" />
		<path
   style="fill:#6f8eaa"
   d="M 794.924,442.049 H 541.105 c -3.268,0 -5.917,-2.649 -5.917,-5.917 v -127.67 c 0,-3.268 2.649,-5.917 5.917,-5.917 h 253.819 c 3.268,0 5.917,2.649 5.917,5.917 v 127.671 c -10e-4,3.267 -2.65,5.916 -5.917,5.916 z"
   id="path36" />
		<g
   id="g136">
			<g
   id="g102">
				<path
   style="fill:#d9dbee"
   d="m 698.962,431.759 h -146.98 c -2.868,0 -5.214,-2.346 -5.214,-5.214 v -107.78 c 0,-2.868 2.346,-5.214 5.214,-5.214 h 146.98 c 2.868,0 5.214,2.346 5.214,5.214 v 107.779 c 0,2.868 -2.346,5.215 -5.214,5.215 z"
   id="path37" />
				<g
   id="g42">
					<path
   style="fill:#a8b9d5"
   d="m 704.176,318.766 v 2.907 H 546.77 v -2.907 c 0,-2.868 2.343,-5.215 5.211,-5.215 h 146.98 c 2.868,0 5.215,2.347 5.215,5.215 z"
   id="path38" />
					<g
   id="g41">
						<path
   style="fill:#d9dbee"
   d="m 551.491,317.612 c 0,-0.787 0.638,-1.425 1.425,-1.425 0.787,0 1.425,0.638 1.425,1.425 0,0.787 -0.638,1.425 -1.425,1.425 -0.787,0 -1.425,-0.638 -1.425,-1.425 z"
   id="path39" />
						<path
   style="fill:#d9dbee"
   d="m 556.629,317.612 c 0,-0.787 0.638,-1.425 1.425,-1.425 0.787,0 1.425,0.638 1.425,1.425 0,0.787 -0.638,1.425 -1.425,1.425 -0.787,0 -1.425,-0.638 -1.425,-1.425 z"
   id="path40" />
						<path
   style="fill:#d9dbee"
   d="m 561.768,317.612 c 0,-0.787 0.638,-1.425 1.425,-1.425 0.787,0 1.425,0.638 1.425,1.425 0,0.787 -0.638,1.425 -1.425,1.425 -0.787,0 -1.425,-0.638 -1.425,-1.425 z"
   id="path41" />
					</g>
				</g>
				<g
   id="g101">
					<g
   id="g73">
						<path
   style="fill:#a8b9d5"
   d="m 581.536,423.017 h -27.789 c -1.9,0 -3.455,-1.555 -3.455,-3.455 v -91.096 c 0,-1.9 1.555,-3.455 3.455,-3.455 h 27.789 c 1.9,0 3.455,1.555 3.455,3.455 v 91.096 c -10e-4,1.9 -1.555,3.455 -3.455,3.455 z"
   id="path42" />
						<g
   id="g72">
							<g
   id="g51">
								<path
   style="fill:#d9dbee"
   d="m 559.253,335.064 h -5.247 c -0.561,0 -1.021,-0.459 -1.021,-1.021 v -5.247 c 0,-0.561 0.459,-1.021 1.021,-1.021 h 5.247 c 0.561,0 1.021,0.459 1.021,1.021 v 5.247 c -10e-4,0.562 -0.46,1.021 -1.021,1.021 z"
   id="path43" />
								<path
   style="fill:#d9dbee"
   d="m 559.253,345.47 h -5.247 c -0.561,0 -1.021,-0.459 -1.021,-1.021 v -5.247 c 0,-0.561 0.459,-1.021 1.021,-1.021 h 5.247 c 0.561,0 1.021,0.459 1.021,1.021 v 5.247 c -10e-4,0.562 -0.46,1.021 -1.021,1.021 z"
   id="path44" />
								<path
   style="fill:#d9dbee"
   d="m 559.253,355.876 h -5.247 c -0.561,0 -1.021,-0.459 -1.021,-1.021 v -5.247 c 0,-0.561 0.459,-1.021 1.021,-1.021 h 5.247 c 0.561,0 1.021,0.459 1.021,1.021 v 5.247 c -10e-4,0.562 -0.46,1.021 -1.021,1.021 z"
   id="path45" />
								<path
   style="fill:#d9dbee"
   d="m 559.253,366.282 h -5.247 c -0.561,0 -1.021,-0.459 -1.021,-1.021 v -5.247 c 0,-0.561 0.459,-1.021 1.021,-1.021 h 5.247 c 0.561,0 1.021,0.459 1.021,1.021 v 5.247 c -10e-4,0.562 -0.46,1.021 -1.021,1.021 z"
   id="path46" />
								<path
   style="fill:#d9dbee"
   d="m 559.253,376.688 h -5.247 c -0.561,0 -1.021,-0.459 -1.021,-1.021 v -5.247 c 0,-0.561 0.459,-1.021 1.021,-1.021 h 5.247 c 0.561,0 1.021,0.459 1.021,1.021 v 5.247 c -10e-4,0.562 -0.46,1.021 -1.021,1.021 z"
   id="path47" />
								<path
   style="fill:#d9dbee"
   d="m 559.253,387.094 h -5.247 c -0.561,0 -1.021,-0.459 -1.021,-1.021 v -5.247 c 0,-0.561 0.459,-1.021 1.021,-1.021 h 5.247 c 0.561,0 1.021,0.459 1.021,1.021 v 5.247 c -10e-4,0.562 -0.46,1.021 -1.021,1.021 z"
   id="path48" />
								<path
   style="fill:#d9dbee"
   d="m 559.253,397.5 h -5.247 c -0.561,0 -1.021,-0.459 -1.021,-1.021 v -5.247 c 0,-0.561 0.459,-1.021 1.021,-1.021 h 5.247 c 0.561,0 1.021,0.459 1.021,1.021 v 5.247 c -10e-4,0.562 -0.46,1.021 -1.021,1.021 z"
   id="path49" />
								<path
   style="fill:#d9dbee"
   d="m 559.253,407.906 h -5.247 c -0.561,0 -1.021,-0.459 -1.021,-1.021 v -5.247 c 0,-0.561 0.459,-1.021 1.021,-1.021 h 5.247 c 0.561,0 1.021,0.459 1.021,1.021 v 5.247 c -10e-4,0.562 -0.46,1.021 -1.021,1.021 z"
   id="path50" />
								<path
   style="fill:#d9dbee"
   d="m 559.253,418.313 h -5.247 c -0.561,0 -1.021,-0.459 -1.021,-1.021 v -5.247 c 0,-0.561 0.459,-1.021 1.021,-1.021 h 5.247 c 0.561,0 1.021,0.459 1.021,1.021 v 5.247 c -10e-4,0.561 -0.46,1.021 -1.021,1.021 z"
   id="path51" />
							</g>
							<g
   id="g53">
								<path
   style="fill:#d9dbee"
   d="m 576.701,330.393 h -12.427 c -0.595,0 -1.081,-0.486 -1.081,-1.081 v 0 c 0,-0.595 0.486,-1.081 1.081,-1.081 h 12.427 c 0.594,0 1.081,0.486 1.081,1.081 v 0 c -0.001,0.595 -0.487,1.081 -1.081,1.081 z"
   id="path52" />
								<path
   style="fill:#d9dbee"
   d="m 576.701,334.609 h -12.427 c -0.595,0 -1.081,-0.486 -1.081,-1.081 v 0 c 0,-0.594 0.486,-1.081 1.081,-1.081 h 12.427 c 0.594,0 1.081,0.486 1.081,1.081 v 0 c -0.001,0.594 -0.487,1.081 -1.081,1.081 z"
   id="path53" />
							</g>
							<g
   id="g55">
								<path
   style="fill:#d9dbee"
   d="m 576.701,340.799 h -12.427 c -0.595,0 -1.081,-0.486 -1.081,-1.081 v 0 c 0,-0.595 0.486,-1.081 1.081,-1.081 h 12.427 c 0.594,0 1.081,0.486 1.081,1.081 v 0 c -0.001,0.595 -0.487,1.081 -1.081,1.081 z"
   id="path54" />
								<path
   style="fill:#d9dbee"
   d="m 571.316,345.015 h -7.043 c -0.595,0 -1.081,-0.486 -1.081,-1.081 v 0 c 0,-0.594 0.486,-1.081 1.081,-1.081 h 7.043 c 0.595,0 1.081,0.486 1.081,1.081 v 0 c 0,0.595 -0.486,1.081 -1.081,1.081 z"
   id="path55" />
							</g>
							<g
   id="g57">
								<path
   style="fill:#d9dbee"
   d="m 576.701,351.205 h -12.427 c -0.595,0 -1.081,-0.486 -1.081,-1.081 v 0 c 0,-0.595 0.486,-1.081 1.081,-1.081 h 12.427 c 0.594,0 1.081,0.486 1.081,1.081 v 0 c -0.001,0.595 -0.487,1.081 -1.081,1.081 z"
   id="path56" />
								<path
   style="fill:#d9dbee"
   d="m 576.701,355.421 h -12.427 c -0.595,0 -1.081,-0.486 -1.081,-1.081 v 0 c 0,-0.594 0.486,-1.081 1.081,-1.081 h 12.427 c 0.594,0 1.081,0.486 1.081,1.081 v 0 c -0.001,0.595 -0.487,1.081 -1.081,1.081 z"
   id="path57" />
							</g>
							<g
   id="g60">
								<path
   style="fill:#d9dbee"
   d="m 567.616,361.611 h -3.343 c -0.597,0 -1.081,-0.484 -1.081,-1.081 v 0 c 0,-0.597 0.484,-1.081 1.081,-1.081 h 3.343 c 0.597,0 1.081,0.484 1.081,1.081 v 0 c 0,0.597 -0.484,1.081 -1.081,1.081 z"
   id="path58" />
								<path
   style="fill:#d9dbee"
   d="m 574.67,361.611 h -3.343 c -0.597,0 -1.081,-0.484 -1.081,-1.081 v 0 c 0,-0.597 0.484,-1.081 1.081,-1.081 h 3.343 c 0.597,0 1.081,0.484 1.081,1.081 v 0 c 0,0.597 -0.484,1.081 -1.081,1.081 z"
   id="path59" />
								<path
   style="fill:#d9dbee"
   d="m 576.701,365.827 h -12.427 c -0.595,0 -1.081,-0.486 -1.081,-1.081 v 0 c 0,-0.594 0.486,-1.081 1.081,-1.081 h 12.427 c 0.594,0 1.081,0.487 1.081,1.081 v 0 c -0.001,0.595 -0.487,1.081 -1.081,1.081 z"
   id="path60" />
							</g>
							<g
   id="g63">
								<path
   style="fill:#d9dbee"
   d="m 567.616,403.236 h -3.343 c -0.597,0 -1.081,-0.484 -1.081,-1.081 v 0 c 0,-0.597 0.484,-1.081 1.081,-1.081 h 3.343 c 0.597,0 1.081,0.484 1.081,1.081 v 0 c 0,0.597 -0.484,1.081 -1.081,1.081 z"
   id="path61" />
								<path
   style="fill:#d9dbee"
   d="m 574.67,403.236 h -3.343 c -0.597,0 -1.081,-0.484 -1.081,-1.081 v 0 c 0,-0.597 0.484,-1.081 1.081,-1.081 h 3.343 c 0.597,0 1.081,0.484 1.081,1.081 v 0 c 0,0.597 -0.484,1.081 -1.081,1.081 z"
   id="path62" />
								<path
   style="fill:#d9dbee"
   d="m 576.701,407.451 h -12.427 c -0.595,0 -1.081,-0.486 -1.081,-1.081 v 0 c 0,-0.595 0.486,-1.081 1.081,-1.081 h 12.427 c 0.594,0 1.081,0.487 1.081,1.081 v 0 c -0.001,0.595 -0.487,1.081 -1.081,1.081 z"
   id="path63" />
							</g>
							<g
   id="g65">
								<path
   style="fill:#d9dbee"
   d="m 576.701,372.017 h -12.427 c -0.595,0 -1.081,-0.486 -1.081,-1.081 v 0 c 0,-0.595 0.486,-1.081 1.081,-1.081 h 12.427 c 0.594,0 1.081,0.486 1.081,1.081 v 0 c -0.001,0.595 -0.487,1.081 -1.081,1.081 z"
   id="path64" />
								<path
   style="fill:#d9dbee"
   d="m 576.701,376.233 h -12.427 c -0.595,0 -1.081,-0.486 -1.081,-1.081 v 0 c 0,-0.594 0.486,-1.081 1.081,-1.081 h 12.427 c 0.594,0 1.081,0.486 1.081,1.081 v 0 c -0.001,0.595 -0.487,1.081 -1.081,1.081 z"
   id="path65" />
							</g>
							<g
   id="g67">
								<path
   style="fill:#d9dbee"
   d="m 576.701,382.423 h -12.427 c -0.595,0 -1.081,-0.486 -1.081,-1.081 v 0 c 0,-0.595 0.486,-1.081 1.081,-1.081 h 12.427 c 0.594,0 1.081,0.486 1.081,1.081 v 0 c -0.001,0.595 -0.487,1.081 -1.081,1.081 z"
   id="path66" />
								<path
   style="fill:#d9dbee"
   d="m 571.856,386.639 h -7.582 c -0.595,0 -1.081,-0.487 -1.081,-1.081 v 0 c 0,-0.594 0.486,-1.081 1.081,-1.081 h 7.582 c 0.594,0 1.081,0.486 1.081,1.081 v 0 c 0,0.595 -0.487,1.081 -1.081,1.081 z"
   id="path67" />
							</g>
							<g
   id="g69">
								<path
   style="fill:#d9dbee"
   d="m 576.701,392.829 h -12.427 c -0.595,0 -1.081,-0.486 -1.081,-1.081 v 0 c 0,-0.595 0.486,-1.081 1.081,-1.081 h 12.427 c 0.594,0 1.081,0.486 1.081,1.081 v 0 c -0.001,0.595 -0.487,1.081 -1.081,1.081 z"
   id="path68" />
								<path
   style="fill:#d9dbee"
   d="m 576.701,397.045 h -12.427 c -0.595,0 -1.081,-0.486 -1.081,-1.081 v 0 c 0,-0.594 0.486,-1.081 1.081,-1.081 h 12.427 c 0.594,0 1.081,0.486 1.081,1.081 v 0 c -0.001,0.595 -0.487,1.081 -1.081,1.081 z"
   id="path69" />
							</g>
							<g
   id="g71">
								<path
   style="fill:#d9dbee"
   d="m 576.701,413.642 h -12.427 c -0.595,0 -1.081,-0.486 -1.081,-1.081 v 0 c 0,-0.595 0.486,-1.081 1.081,-1.081 h 12.427 c 0.594,0 1.081,0.486 1.081,1.081 v 0 c -0.001,0.594 -0.487,1.081 -1.081,1.081 z"
   id="path70" />
								<path
   style="fill:#d9dbee"
   d="m 576.701,417.858 h -12.427 c -0.595,0 -1.081,-0.486 -1.081,-1.081 v 0 c 0,-0.594 0.486,-1.081 1.081,-1.081 h 12.427 c 0.594,0 1.081,0.486 1.081,1.081 v 0 c -0.001,0.594 -0.487,1.081 -1.081,1.081 z"
   id="path71" />
							</g>
						</g>
					</g>
					<path
   style="fill:#a8b9d5"
   d="m 591.532,413.642 v 0 c -0.588,0 -1.069,-0.481 -1.069,-1.069 V 326.08 c 0,-0.588 0.481,-1.069 1.069,-1.069 v 0 c 0.588,0 1.069,0.481 1.069,1.069 v 86.493 c 0,0.588 -0.481,1.069 -1.069,1.069 z"
   id="path73" />
					<g
   id="g100">
						<g
   id="g92">
							<g
   id="g76">
								<path
   style="fill:#a8b9d5"
   d="m 649.062,364.38 h -18.438 c -0.672,0 -1.223,-0.55 -1.223,-1.223 v 0 c 0,-0.673 0.55,-1.223 1.223,-1.223 h 18.438 c 0.672,0 1.223,0.55 1.223,1.223 v 0 c 0,0.673 -0.55,1.223 -1.223,1.223 z"
   id="path74" />
								<path
   style="fill:#a8b9d5"
   d="m 611.124,364.38 h -10.888 c -0.673,0 -1.223,-0.55 -1.223,-1.223 v 0 c 0,-0.673 0.55,-1.223 1.223,-1.223 h 10.888 c 0.672,0 1.223,0.55 1.223,1.223 v 0 c 0,0.673 -0.55,1.223 -1.223,1.223 z"
   id="path75" />
								<path
   style="fill:#a8b9d5"
   d="m 626.131,364.38 h -10.888 c -0.672,0 -1.223,-0.55 -1.223,-1.223 v 0 c 0,-0.673 0.55,-1.223 1.223,-1.223 h 10.888 c 0.672,0 1.223,0.55 1.223,1.223 v 0 c 0,0.673 -0.551,1.223 -1.223,1.223 z"
   id="path76" />
							</g>
							<g
   id="g80">
								<path
   style="fill:#a8b9d5"
   d="m 618.674,352.263 h -18.438 c -0.673,0 -1.223,-0.55 -1.223,-1.223 v 0 c 0,-0.673 0.55,-1.223 1.223,-1.223 h 18.438 c 0.672,0 1.223,0.55 1.223,1.223 v 0 c 0,0.673 -0.55,1.223 -1.223,1.223 z"
   id="path77" />
								<path
   style="fill:#a8b9d5"
   d="m 643.417,352.263 h -10.888 c -0.672,0 -1.223,-0.55 -1.223,-1.223 v 0 c 0,-0.673 0.55,-1.223 1.223,-1.223 h 10.888 c 0.672,0 1.223,0.55 1.223,1.223 v 0 c -10e-4,0.673 -0.551,1.223 -1.223,1.223 z"
   id="path78" />
								<path
   style="fill:#a8b9d5"
   d="m 658.423,352.263 h -10.888 c -0.672,0 -1.223,-0.55 -1.223,-1.223 v 0 c 0,-0.673 0.55,-1.223 1.223,-1.223 h 10.888 c 0.672,0 1.223,0.55 1.223,1.223 v 0 c 0,0.673 -0.55,1.223 -1.223,1.223 z"
   id="path79" />
								<path
   style="fill:#a8b9d5"
   d="m 628.179,352.263 h -5.571 c -0.673,0 -1.223,-0.55 -1.223,-1.223 v 0 c 0,-0.673 0.55,-1.223 1.223,-1.223 h 5.571 c 0.673,0 1.223,0.55 1.223,1.223 v 0 c 0,0.673 -0.551,1.223 -1.223,1.223 z"
   id="path80" />
							</g>
							<g
   id="g83">
								<path
   style="fill:#a8b9d5"
   d="m 621.045,376.608 h -10.888 c -0.672,0 -1.223,-0.55 -1.223,-1.223 v 0 c 0,-0.672 0.55,-1.223 1.223,-1.223 h 10.888 c 0.672,0 1.223,0.55 1.223,1.223 v 0 c 0,0.672 -0.55,1.223 -1.223,1.223 z"
   id="path81" />
								<path
   style="fill:#a8b9d5"
   d="m 605.808,376.608 h -5.571 c -0.673,0 -1.223,-0.55 -1.223,-1.223 v 0 c 0,-0.672 0.55,-1.223 1.223,-1.223 h 5.571 c 0.673,0 1.223,0.55 1.223,1.223 v 0 c 0,0.672 -0.551,1.223 -1.223,1.223 z"
   id="path82" />
								<path
   style="fill:#a8b9d5"
   d="m 631.261,376.608 h -5.571 c -0.672,0 -1.223,-0.55 -1.223,-1.223 v 0 c 0,-0.672 0.55,-1.223 1.223,-1.223 h 5.571 c 0.672,0 1.223,0.55 1.223,1.223 v 0 c -0.001,0.672 -0.551,1.223 -1.223,1.223 z"
   id="path83" />
							</g>
							<g
   id="g86">
								<path
   style="fill:#a8b9d5"
   d="m 634.056,388.835 h -18.438 c -0.673,0 -1.223,-0.55 -1.223,-1.223 v 0 c 0,-0.672 0.55,-1.223 1.223,-1.223 h 18.438 c 0.672,0 1.223,0.55 1.223,1.223 v 0 c -10e-4,0.673 -0.551,1.223 -1.223,1.223 z"
   id="path84" />
								<path
   style="fill:#a8b9d5"
   d="m 611.124,388.835 h -10.888 c -0.673,0 -1.223,-0.55 -1.223,-1.223 v 0 c 0,-0.672 0.55,-1.223 1.223,-1.223 h 10.888 c 0.672,0 1.223,0.55 1.223,1.223 v 0 c 0,0.673 -0.55,1.223 -1.223,1.223 z"
   id="path85" />
								<path
   style="fill:#a8b9d5"
   d="m 645.067,388.835 h -5.572 c -0.672,0 -1.223,-0.55 -1.223,-1.223 v 0 c 0,-0.672 0.55,-1.223 1.223,-1.223 h 5.572 c 0.672,0 1.223,0.55 1.223,1.223 v 0 c -10e-4,0.673 -0.551,1.223 -1.223,1.223 z"
   id="path86" />
							</g>
							<path
   style="fill:#a8b9d5"
   d="m 649.086,358.266 h -48.849 c -0.673,0 -1.223,-0.55 -1.223,-1.223 v 0 c 0,-0.673 0.55,-1.223 1.223,-1.223 h 48.849 c 0.672,0 1.223,0.55 1.223,1.223 v 0 c -10e-4,0.673 -0.551,1.223 -1.223,1.223 z"
   id="path87" />
							<path
   style="fill:#a8b9d5"
   d="m 649.086,382.721 h -48.849 c -0.673,0 -1.223,-0.55 -1.223,-1.223 v 0 c 0,-0.672 0.55,-1.223 1.223,-1.223 h 48.849 c 0.672,0 1.223,0.55 1.223,1.223 v 0 c -10e-4,0.673 -0.551,1.223 -1.223,1.223 z"
   id="path88" />
							<g
   id="g91">
								<path
   style="fill:#a8b9d5"
   d="m 638.898,370.494 h -5.571 c -0.673,0 -1.223,-0.55 -1.223,-1.223 v 0 c 0,-0.673 0.55,-1.223 1.223,-1.223 h 5.571 c 0.672,0 1.223,0.55 1.223,1.223 v 0 c -10e-4,0.673 -0.551,1.223 -1.223,1.223 z"
   id="path89" />
								<path
   style="fill:#a8b9d5"
   d="m 654.225,370.494 h -10.888 c -0.673,0 -1.223,-0.55 -1.223,-1.223 v 0 c 0,-0.673 0.55,-1.223 1.223,-1.223 h 10.888 c 0.673,0 1.223,0.55 1.223,1.223 v 0 c 0,0.673 -0.551,1.223 -1.223,1.223 z"
   id="path90" />
								<path
   style="fill:#a8b9d5"
   d="m 628.916,370.494 h -28.679 c -0.673,0 -1.223,-0.55 -1.223,-1.223 v 0 c 0,-0.673 0.55,-1.223 1.223,-1.223 h 28.679 c 0.673,0 1.223,0.55 1.223,1.223 v 0 c 0,0.673 -0.551,1.223 -1.223,1.223 z"
   id="path91" />
							</g>
						</g>
						<g
   id="g95">
							<path
   style="fill:#a8b9d5"
   d="M 688.605,335.064 H 604.04 c -2.764,0 -5.026,-2.262 -5.026,-5.026 v 0 c 0,-2.764 2.262,-5.026 5.026,-5.026 h 84.565 c 2.764,0 5.026,2.262 5.026,5.026 v 0 c 0,2.764 -2.261,5.026 -5.026,5.026 z"
   id="path92" />
							<g
   id="g94">
								<g
   id="g93">
									<circle
   style="fill:#d9dbee"
   cx="604.52698"
   cy="329.36499"
   r="2.7620001"
   id="circle92" />
									<path
   style="fill:#a8b9d5"
   d="m 602.693,329.365 c 0,-1.013 0.821,-1.834 1.834,-1.834 1.013,0 1.834,0.821 1.834,1.834 0,1.013 -0.821,1.834 -1.834,1.834 -1.013,0 -1.834,-0.821 -1.834,-1.834 z"
   id="path93" />
								</g>
								<path
   style="fill:#d9dbee"
   d="m 608.956,333.657 -0.032,0.036 c -0.187,0.209 -0.512,0.227 -0.721,0.039 l -2.33,-2.089 c -0.209,-0.187 -0.227,-0.512 -0.039,-0.721 l 0.032,-0.036 c 0.187,-0.209 0.512,-0.227 0.721,-0.039 l 2.33,2.089 c 0.208,0.188 0.226,0.512 0.039,0.721 z"
   id="path94" />
							</g>
						</g>
						<g
   id="g99">
							<path
   style="fill:#a8b9d5"
   d="m 599.013,342.082 c 0,-1.476 1.197,-2.673 2.673,-2.673 1.476,0 2.673,1.197 2.673,2.673 0,1.476 -1.197,2.673 -2.673,2.673 -1.476,-10e-4 -2.673,-1.197 -2.673,-2.673 z"
   id="path95" />
							<path
   style="fill:#a8b9d5"
   d="m 607.031,342.082 c 0,-1.476 1.197,-2.673 2.673,-2.673 1.476,0 2.673,1.197 2.673,2.673 0,1.476 -1.197,2.673 -2.673,2.673 -1.477,-10e-4 -2.673,-1.197 -2.673,-2.673 z"
   id="path96" />
							<path
   style="fill:#a8b9d5"
   d="m 615.047,342.082 c 0,-1.476 1.197,-2.673 2.673,-2.673 1.476,0 2.673,1.197 2.673,2.673 0,1.476 -1.197,2.673 -2.673,2.673 -1.476,-10e-4 -2.673,-1.197 -2.673,-2.673 z"
   id="path97" />
							<path
   style="fill:#a8b9d5"
   d="m 623.064,342.082 c 0,-1.476 1.197,-2.673 2.673,-2.673 1.476,0 2.673,1.197 2.673,2.673 0,1.476 -1.197,2.673 -2.673,2.673 -1.476,0 -2.673,-1.197 -2.673,-2.673 z"
   id="path98" />
							<path
   style="fill:#a8b9d5"
   d="m 631.081,342.082 c 0,-1.476 1.197,-2.673 2.673,-2.673 1.476,0 2.673,1.197 2.673,2.673 0,1.476 -1.197,2.673 -2.673,2.673 -1.476,-10e-4 -2.673,-1.197 -2.673,-2.673 z"
   id="path99" />
						</g>
					</g>
				</g>
			</g>
			<g
   id="g118">
				<path
   style="fill:#d9dbee"
   d="m 785.145,356.435 h -68.443 c -2.822,0 -5.13,-2.308 -5.13,-5.13 v -32.766 c 0,-2.821 2.308,-5.13 5.13,-5.13 h 68.443 c 2.821,0 5.13,2.308 5.13,5.13 v 32.766 c 0,2.822 -2.309,5.13 -5.13,5.13 z"
   id="path102" />
				<g
   id="g107">
					<path
   style="fill:#a8b9d5"
   d="m 790.274,318.539 v 2.992 h -78.701 v -2.992 c 0,-2.822 2.308,-5.13 5.13,-5.13 h 68.441 c 2.821,0 5.13,2.309 5.13,5.13 z"
   id="path103" />
					<g
   id="g106">
						<path
   style="fill:#d9dbee"
   d="m 715.56,317.47 c 0,-0.787 0.638,-1.425 1.425,-1.425 0.787,0 1.425,0.638 1.425,1.425 0,0.787 -0.638,1.425 -1.425,1.425 -0.787,0 -1.425,-0.638 -1.425,-1.425 z"
   id="path104" />
						<path
   style="fill:#d9dbee"
   d="m 720.698,317.47 c 0,-0.787 0.638,-1.425 1.425,-1.425 0.787,0 1.425,0.638 1.425,1.425 0,0.787 -0.638,1.425 -1.425,1.425 -0.787,0 -1.425,-0.638 -1.425,-1.425 z"
   id="path105" />
						<path
   style="fill:#d9dbee"
   d="m 725.837,317.47 c 0,-0.787 0.638,-1.425 1.425,-1.425 0.787,0 1.425,0.638 1.425,1.425 0,0.787 -0.638,1.425 -1.425,1.425 -0.787,0 -1.425,-0.638 -1.425,-1.425 z"
   id="path106" />
					</g>
				</g>
				<g
   id="g117">
					<g
   id="g108">
						<path
   style="fill:#a8b9d5"
   d="m 724.205,351.327 v 0 c -0.959,0 -1.744,-0.785 -1.744,-1.744 v -21.759 c 0,-0.959 0.785,-1.744 1.744,-1.744 v 0 c 0.959,0 1.744,0.785 1.744,1.744 v 21.759 c 0,0.959 -0.785,1.744 -1.744,1.744 z"
   id="path107" />
						<path
   style="fill:#ffffff"
   d="m 727.22,336.779 h -6.031 c -0.952,0 -1.731,-0.779 -1.731,-1.731 v 0 c 0,-0.952 0.779,-1.731 1.731,-1.731 h 6.031 c 0.952,0 1.731,0.779 1.731,1.731 v 0 c 10e-4,0.952 -0.778,1.731 -1.731,1.731 z"
   id="path108" />
					</g>
					<g
   id="g110">
						<path
   style="fill:#a8b9d5"
   d="m 737.457,351.327 v 0 c -0.959,0 -1.744,-0.785 -1.744,-1.744 v -21.759 c 0,-0.959 0.785,-1.744 1.744,-1.744 v 0 c 0.959,0 1.744,0.785 1.744,1.744 v 21.759 c 0,0.959 -0.785,1.744 -1.744,1.744 z"
   id="path109" />
						<path
   style="fill:#ffffff"
   d="m 740.473,341.053 h -6.031 c -0.952,0 -1.731,-0.779 -1.731,-1.731 v 0 c 0,-0.952 0.779,-1.731 1.731,-1.731 h 6.031 c 0.952,0 1.731,0.779 1.731,1.731 v 0 c 0,0.953 -0.779,1.731 -1.731,1.731 z"
   id="path110" />
					</g>
					<g
   id="g112">
						<path
   style="fill:#a8b9d5"
   d="m 750.709,351.327 v 0 c -0.959,0 -1.744,-0.785 -1.744,-1.744 v -21.759 c 0,-0.959 0.785,-1.744 1.744,-1.744 v 0 c 0.959,0 1.744,0.785 1.744,1.744 v 21.759 c 0,0.959 -0.784,1.744 -1.744,1.744 z"
   id="path111" />
						<path
   style="fill:#ffffff"
   d="m 753.725,333.786 h -6.031 c -0.952,0 -1.731,-0.779 -1.731,-1.731 v 0 c 0,-0.952 0.779,-1.731 1.731,-1.731 h 6.031 c 0.952,0 1.731,0.779 1.731,1.731 v 0 c 0,0.952 -0.779,1.731 -1.731,1.731 z"
   id="path112" />
					</g>
					<g
   id="g114">
						<path
   style="fill:#a8b9d5"
   d="m 763.962,351.327 v 0 c -0.959,0 -1.744,-0.785 -1.744,-1.744 v -21.759 c 0,-0.959 0.785,-1.744 1.744,-1.744 v 0 c 0.959,0 1.744,0.785 1.744,1.744 v 21.759 c 0,0.959 -0.785,1.744 -1.744,1.744 z"
   id="path113" />
						<path
   style="fill:#ffffff"
   d="m 766.977,347.038 h -6.031 c -0.952,0 -1.731,-0.779 -1.731,-1.731 v 0 c 0,-0.952 0.779,-1.731 1.731,-1.731 h 6.031 c 0.952,0 1.731,0.779 1.731,1.731 v 0 c 0,0.952 -0.779,1.731 -1.731,1.731 z"
   id="path114" />
					</g>
					<g
   id="g116">
						<path
   style="fill:#a8b9d5"
   d="m 777.641,351.327 v 0 c -0.959,0 -1.744,-0.785 -1.744,-1.744 v -21.759 c 0,-0.959 0.785,-1.744 1.744,-1.744 v 0 c 0.959,0 1.744,0.785 1.744,1.744 v 21.759 c 0,0.959 -0.784,1.744 -1.744,1.744 z"
   id="path115" />
						<path
   style="fill:#ffffff"
   d="m 780.657,333.786 h -6.031 c -0.952,0 -1.731,-0.779 -1.731,-1.731 v 0 c 0,-0.952 0.779,-1.731 1.731,-1.731 h 6.031 c 0.952,0 1.731,0.779 1.731,1.731 v 0 c 0,0.952 -0.779,1.731 -1.731,1.731 z"
   id="path116" />
					</g>
				</g>
			</g>
			<g
   id="g135">
				<path
   style="fill:#a8b9d5"
   d="m 785.521,431.759 h -68.808 c -2.732,0 -4.968,-2.236 -4.968,-4.968 V 371.1 c 0,-2.732 2.236,-4.968 4.968,-4.968 h 68.808 c 2.732,0 4.968,2.235 4.968,4.968 v 55.691 c -10e-4,2.732 -2.236,4.968 -4.968,4.968 z"
   id="path118" />
				<path
   style="fill:#d9dbee"
   d="m 790.487,371.099 v 3.061 h -78.744 v -3.061 c 0,-2.732 2.236,-4.967 4.972,-4.967 h 68.805 c 2.731,0 4.967,2.236 4.967,4.967 z"
   id="path119" />
				<g
   id="g122">
					<path
   style="fill:#a8b9d5"
   d="m 715.576,370.494 c 0,-0.787 0.638,-1.425 1.425,-1.425 0.787,0 1.425,0.638 1.425,1.425 0,0.787 -0.638,1.425 -1.425,1.425 -0.787,0 -1.425,-0.638 -1.425,-1.425 z"
   id="path120" />
					<path
   style="fill:#a8b9d5"
   d="m 720.714,370.494 c 0,-0.787 0.638,-1.425 1.425,-1.425 0.787,0 1.425,0.638 1.425,1.425 0,0.787 -0.638,1.425 -1.425,1.425 -0.787,0 -1.425,-0.638 -1.425,-1.425 z"
   id="path121" />
					<path
   style="fill:#a8b9d5"
   d="m 725.853,370.494 c 0,-0.787 0.638,-1.425 1.425,-1.425 0.787,0 1.425,0.638 1.425,1.425 0,0.787 -0.638,1.425 -1.425,1.425 -0.787,0 -1.425,-0.638 -1.425,-1.425 z"
   id="path122" />
				</g>
				<g
   id="g134">
					<path
   style="fill:#ffffff"
   d="m 719.492,381.499 h -2.663 c -0.672,0 -1.223,-0.55 -1.223,-1.223 v 0 c 0,-0.672 0.55,-1.223 1.223,-1.223 h 2.663 c 0.672,0 1.223,0.55 1.223,1.223 v 0 c -10e-4,0.672 -0.551,1.223 -1.223,1.223 z"
   id="path123" />
					<path
   style="fill:#ffffff"
   d="m 719.492,386.949 h -2.663 c -0.672,0 -1.223,-0.55 -1.223,-1.223 v 0 c 0,-0.672 0.55,-1.223 1.223,-1.223 h 2.663 c 0.672,0 1.223,0.55 1.223,1.223 v 0 c -10e-4,0.673 -0.551,1.223 -1.223,1.223 z"
   id="path124" />
					<path
   style="fill:#ffffff"
   d="m 719.492,392.4 h -2.663 c -0.672,0 -1.223,-0.55 -1.223,-1.223 v 0 c 0,-0.672 0.55,-1.223 1.223,-1.223 h 2.663 c 0.672,0 1.223,0.55 1.223,1.223 v 0 c -10e-4,0.672 -0.551,1.223 -1.223,1.223 z"
   id="path125" />
					<path
   style="fill:#ffffff"
   d="m 719.492,397.85 h -2.663 c -0.672,0 -1.223,-0.55 -1.223,-1.223 v 0 c 0,-0.672 0.55,-1.223 1.223,-1.223 h 2.663 c 0.672,0 1.223,0.55 1.223,1.223 v 0 c -10e-4,0.673 -0.551,1.223 -1.223,1.223 z"
   id="path126" />
					<path
   style="fill:#ffffff"
   d="m 719.492,403.301 h -2.663 c -0.672,0 -1.223,-0.55 -1.223,-1.223 v 0 c 0,-0.672 0.55,-1.223 1.223,-1.223 h 2.663 c 0.672,0 1.223,0.55 1.223,1.223 v 0 c -10e-4,0.672 -0.551,1.223 -1.223,1.223 z"
   id="path127" />
					<path
   style="fill:#ffffff"
   d="m 719.492,408.751 h -2.663 c -0.672,0 -1.223,-0.55 -1.223,-1.223 v 0 c 0,-0.672 0.55,-1.223 1.223,-1.223 h 2.663 c 0.672,0 1.223,0.55 1.223,1.223 v 0 c -10e-4,0.673 -0.551,1.223 -1.223,1.223 z"
   id="path128" />
					<path
   style="fill:#ffffff"
   d="m 719.492,414.202 h -2.663 c -0.672,0 -1.223,-0.55 -1.223,-1.223 v 0 c 0,-0.672 0.55,-1.223 1.223,-1.223 h 2.663 c 0.672,0 1.223,0.55 1.223,1.223 v 0 c -10e-4,0.672 -0.551,1.223 -1.223,1.223 z"
   id="path129" />
					<path
   style="fill:#ffffff"
   d="m 719.492,419.652 h -2.663 c -0.672,0 -1.223,-0.55 -1.223,-1.223 v 0 c 0,-0.672 0.55,-1.223 1.223,-1.223 h 2.663 c 0.672,0 1.223,0.55 1.223,1.223 v 0 c -10e-4,0.673 -0.551,1.223 -1.223,1.223 z"
   id="path130" />
					<path
   style="fill:#ffffff"
   d="m 719.492,425.103 h -2.663 c -0.672,0 -1.223,-0.55 -1.223,-1.223 v 0 c 0,-0.672 0.55,-1.223 1.223,-1.223 h 2.663 c 0.672,0 1.223,0.55 1.223,1.223 v 0 c -10e-4,0.672 -0.551,1.223 -1.223,1.223 z"
   id="path131" />
					<path
   style="fill:#ffffff"
   d="m 734.147,392.4 h -10.888 c -0.672,0 -1.223,-0.55 -1.223,-1.223 v 0 c 0,-0.673 0.55,-1.223 1.223,-1.223 h 10.888 c 0.672,0 1.223,0.55 1.223,1.223 v 0 c 0,0.672 -0.551,1.223 -1.223,1.223 z"
   id="path132" />
					<path
   style="fill:#ffffff"
   d="m 734.147,397.85 h -10.888 c -0.672,0 -1.223,-0.55 -1.223,-1.223 v 0 c 0,-0.673 0.55,-1.223 1.223,-1.223 h 10.888 c 0.672,0 1.223,0.55 1.223,1.223 v 0 c 0,0.673 -0.551,1.223 -1.223,1.223 z"
   id="path133" />
					<path
   style="fill:#ffffff"
   d="m 734.147,419.652 h -10.888 c -0.672,0 -1.223,-0.55 -1.223,-1.223 v 0 c 0,-0.673 0.55,-1.223 1.223,-1.223 h 10.888 c 0.672,0 1.223,0.55 1.223,1.223 v 0 c 0,0.673 -0.551,1.223 -1.223,1.223 z"
   id="path134" />
				</g>
			</g>
		</g>
	</g>
	<g
   id="g173">
		<g
   id="g139">
			<path
   style="fill:#995c7d"
   d="m 327.694,502.545 h 8.312 c 2.93,0 5.328,-2.398 5.328,-5.331 v -14.881 c 0,-2.93 -2.398,-5.328 -5.328,-5.328 h -8.476 c -0.05,-1.498 -0.086,-2.996 -0.099,-4.493 h 11.804 c 3.823,0 6.951,3.128 6.951,6.951 v 20.626 c 0,3.823 -3.128,6.951 -6.951,6.951 h -12.132 c 0.252,-1.497 0.445,-2.995 0.591,-4.495 z"
   id="path137" />
			<path
   style="fill:#7a3d5f"
   d="m 331.937,466.757 v 45.342 c 0,2.328 -1.641,4.236 -3.644,4.236 h -33.372 c -2.003,0 -3.644,-1.908 -3.644,-4.236 v -45.342 c 0,-2.332 1.641,-4.236 3.644,-4.236 h 33.372 c 2.002,-0.001 3.644,1.904 3.644,4.236 z"
   id="path138" />
			<path
   style="fill:#995c7d"
   d="m 332.521,466.757 v 45.342 c 0,2.328 -1.641,4.236 -3.645,4.236 h -23.505 c -2.003,0 -3.644,-1.908 -3.644,-4.236 v -45.342 c 0,-2.332 1.641,-4.236 3.644,-4.236 h 23.505 c 2.003,-0.001 3.645,1.904 3.645,4.236 z"
   id="path139" />
		</g>
		<g
   id="g154">
			<g
   id="g142">
				<path
   style="fill:#4eb3af"
   d="m 922.798,347.75 c -13.835,25.287 -18.947,54.953 -14.466,83.42 0.375,2.38 4.087,1.866 3.711,-0.522 -4.389,-27.879 0.679,-56.723 14.222,-81.476 1.159,-2.116 -2.322,-3.516 -3.467,-1.422 z"
   id="path140" />
				<path
   style="fill:#ffe989"
   d="m 940.709,341.898 c 0.67,-1.034 1.163,-2.16 1.284,-3.392 0.228,-2.307 -1.056,-4.406 -3.196,-5.268 -3.75,-1.511 -6.797,0.534 -9.093,3.259 -0.807,-2.34 -2.093,-4.527 -4.25,-5.864 -2.276,-1.41 -5.348,-1.578 -7.713,-0.281 -3.142,1.722 -3.758,5.852 -2.085,8.538 -2.037,0.19 -4.036,0.636 -5.81,1.715 -2.284,1.389 -4.014,3.959 -3.986,6.69 0.028,2.716 1.942,4.863 4.455,5.694 2.234,0.738 4.477,0.425 6.646,-0.241 -1.399,5.165 2.086,10.965 8.015,11.207 5.367,0.22 9.336,-4.378 9.142,-9.239 0.14,-0.409 0.262,-0.825 0.357,-1.253 1.849,0.421 3.766,0.459 5.593,-0.188 2.421,-0.857 4.479,-3.137 4.765,-5.734 0.305,-2.78 -1.741,-5.064 -4.124,-5.643 z"
   id="path141" />
				<path
   style="fill:#f2b263"
   d="m 927.787,341.902 c -1.796,0 -3.481,0.928 -3.732,2.873 -0.207,1.603 1.063,3.733 2.873,3.733 1.796,0 3.481,-0.928 3.732,-2.873 0.207,-1.604 -1.063,-3.733 -2.873,-3.733 z"
   id="path142" />
			</g>
			<g
   id="g153">
				<g
   id="g146">
					<ellipse
   style="fill:#f27792"
   cx="908.77698"
   cy="474.10501"
   rx="27.572001"
   ry="38.518002"
   id="ellipse142" />
					<path
   style="fill:#f27792"
   d="m 916.624,402.253 v 60.154 c 0,4.437 -2.6,8.069 -5.776,8.069 h -4.146 c -3.176,0 -5.771,-3.632 -5.771,-8.069 v -60.154 c 0,-4.437 2.595,-8.069 5.771,-8.069 h 4.146 c 3.176,0 5.776,3.632 5.776,8.069 z"
   id="path143" />
					<path
   style="fill:#d74c6b"
   d="m 927.399,508.459 c 0,0.785 -0.089,1.544 -0.248,2.264 -0.267,1.171 -0.731,2.219 -1.34,3.076 -0.984,1.368 -2.338,2.219 -3.823,2.219 h -26.425 c -2.413,0 -4.464,-2.238 -5.158,-5.294 -0.159,-0.72 -0.248,-1.479 -0.248,-2.264 0,-2.081 0.609,-3.966 1.588,-5.333 0.979,-1.367 2.328,-2.219 3.818,-2.219 h 26.425 c 2.975,-0.001 5.411,3.395 5.411,7.551 z"
   id="path144" />
					<path
   style="fill:#f27792"
   d="M 916.823,403.926 H 900.73 c -3.111,0 -5.656,-2.545 -5.656,-5.656 v -2.058 c 0,-3.111 2.545,-5.656 5.656,-5.656 h 16.092 c 3.111,0 5.656,2.545 5.656,5.656 v 2.058 c 0.001,3.111 -2.545,5.656 -5.655,5.656 z"
   id="path145" />
					<path
   style="fill:#f27792"
   d="m 927.399,508.459 c 0,0.785 -0.089,1.544 -0.248,2.264 h -36.745 c -0.159,-0.72 -0.248,-1.479 -0.248,-2.264 0,-2.081 0.609,-3.966 1.588,-5.333 0.979,-1.367 2.328,-2.219 3.818,-2.219 h 26.425 c 2.974,0 5.41,3.396 5.41,7.552 z"
   id="path146" />
					<rect
   x="900.93201"
   y="403.92801"
   style="fill:#d74c6b"
   width="15.693"
   height="4.6989999"
   id="rect146" />
				</g>
				<g
   id="g152">
					<path
   style="fill:#d74c6b"
   d="m 901.709,509.491 c -0.792,-7.273 -0.738,-14.694 -0.691,-22.033 0.071,-10.985 0.987,-21.914 2.112,-32.774 0.649,-6.266 1.384,-12.513 2.081,-18.767 -13.542,2.444 -24.007,18.603 -24.007,38.187 0,17.983 8.822,33.086 20.75,37.328 -0.09,-0.647 -0.175,-1.295 -0.245,-1.941 z"
   id="path147" />
					<path
   style="fill:#d74c6b"
   d="m 903.131,454.685 c 1.136,-10.96 2.537,-21.863 3.529,-32.852 0.832,-9.214 1.432,-18.526 0.244,-27.649 h -0.202 c -3.176,0 -5.771,3.632 -5.771,8.069 v 60.154 c 0,1.713 0.39,3.303 1.048,4.614 0.332,-4.122 0.726,-8.234 1.152,-12.336 z"
   id="path148" />
					<path
   style="fill:#d74c6b"
   d="m 901.709,509.491 c -0.309,-2.844 -0.487,-5.71 -0.589,-8.585 h -5.557 c -1.49,0 -2.839,0.851 -3.818,2.219 -0.979,1.368 -1.588,3.252 -1.588,5.333 0,0.785 0.089,1.544 0.248,2.264 0.693,3.056 2.745,5.294 5.158,5.294 h 7.24 c -0.501,-2.133 -0.856,-4.343 -1.094,-6.525 z"
   id="path149" />
					<path
   style="fill:#d74c6b"
   d="m 906.33,390.556 h -6.47 c -2.632,0 -4.785,3.008 -4.785,6.685 0,3.677 2.153,6.685 4.785,6.685 h 7.704 c -0.055,-4.488 -0.41,-8.956 -1.234,-13.37 z"
   id="path150" />
					<path
   style="fill:#d74c6b"
   d="m 901.709,509.491 c -0.309,-2.844 -0.487,-5.71 -0.589,-8.585 h -5.557 c -1.49,0 -2.839,0.851 -3.818,2.219 -0.979,1.368 -1.588,3.252 -1.588,5.333 0,0.785 0.089,1.544 0.248,2.264 h 11.452 c -0.053,-0.41 -0.103,-0.821 -0.148,-1.231 z"
   id="path151" />
					<path
   style="fill:#d74c6b"
   d="m 907.564,403.928 h -6.633 v 4.699 h 6.59 c 0.045,-1.568 0.063,-3.135 0.043,-4.699 z"
   id="path152" />
				</g>
			</g>
		</g>
		<g
   id="g172">
			<g
   id="g158">
				<path
   style="fill:#ffffff"
   d="m 876.651,504.219 -3.434,0.445 c -0.677,0.088 -1.312,-0.467 -1.412,-1.24 l -9.457,-72.909 c -0.063,-0.486 0.39,-6.022 0.734,-10.036 0.196,-2.345 0.358,-4.166 0.358,-4.166 0,0 0.638,1.717 1.448,3.931 1.39,3.79 3.286,9.021 3.349,9.507 l 9.457,72.909 c 0.101,0.774 -0.372,1.472 -1.043,1.559 z"
   id="path154" />
				<path
   style="fill:#f2b263"
   d="m 877.896,504.212 -9.618,-74.153 -5.887,0.764 9.618,74.153 c 0.111,0.855 0.901,1.463 1.755,1.352 l 2.779,-0.361 c 0.855,-0.111 1.463,-0.901 1.353,-1.755 z"
   id="path155" />
				<path
   style="fill:#f27792"
   d="m 877.933,504.5 -0.408,-3.146 -5.887,0.764 0.408,3.146 c 0.202,1.56 1.644,2.671 3.204,2.469 l 0.214,-0.028 c 1.56,-0.202 2.671,-1.644 2.469,-3.205 z"
   id="path156" />
				<path
   style="fill:#403e55"
   d="m 877.637,502.218 -0.112,-0.864 -5.887,0.763 0.112,0.864 c 0.013,0.1 0.106,0.172 0.207,0.159 l 5.521,-0.716 c 0.1,-0.012 0.172,-0.105 0.159,-0.206 z"
   id="path157" />
				<path
   style="fill:#403e55"
   d="m 864.889,420.245 -1.806,0.234 c 0.196,-2.345 0.358,-4.166 0.358,-4.166 0,0 0.637,1.718 1.448,3.932 z"
   id="path158" />
			</g>
			<g
   id="g163">
				<path
   style="fill:#ffffff"
   d="m 881.847,429.994 3.192,0.642 c 0.629,0.126 1.027,0.812 0.882,1.531 l -13.623,67.773 c -0.091,0.452 -2.168,5.243 -3.688,8.714 -0.884,2.029 -1.578,3.601 -1.578,3.601 0,0 -0.049,-1.721 -0.101,-3.938 -0.092,-3.794 -0.198,-9.025 -0.107,-9.477 l 13.623,-67.773 c 0.144,-0.72 0.776,-1.199 1.4,-1.073 z"
   id="path159" />
				<path
   style="fill:#f2b263"
   d="m 880.736,429.624 -13.855,68.93 5.472,1.1 13.855,-68.93 c 0.16,-0.794 -0.36,-1.575 -1.154,-1.735 l -2.584,-0.519 c -0.793,-0.16 -1.574,0.36 -1.734,1.154 z"
   id="path160" />
				<path
   style="fill:#f27792"
   d="m 880.79,429.356 -0.588,2.925 5.472,1.1 0.588,-2.925 c 0.292,-1.45 -0.656,-2.875 -2.107,-3.167 l -0.199,-0.04 c -1.449,-0.291 -2.874,0.657 -3.166,2.107 z"
   id="path161" />
				<path
   style="fill:#403e55"
   d="m 880.364,431.477 -0.161,0.803 5.472,1.1 0.161,-0.803 c 0.019,-0.094 -0.042,-0.185 -0.136,-0.204 l -5.132,-1.032 c -0.094,-0.018 -0.185,0.043 -0.204,0.136 z"
   id="path162" />
				<path
   style="fill:#403e55"
   d="m 866.931,508.316 1.679,0.337 c -0.884,2.029 -1.578,3.601 -1.578,3.601 0,0 -0.049,-1.722 -0.101,-3.938 z"
   id="path163" />
			</g>
			<g
   id="g169">
				<path
   style="fill:#403e55"
   d="m 864.056,494.337 v 0 c -0.265,0.016 -0.495,-0.187 -0.511,-0.451 l -0.611,-9.898 c -0.016,-0.265 0.187,-0.495 0.451,-0.511 v 0 c 0.265,-0.016 0.494,0.187 0.511,0.452 l 0.611,9.898 c 0.017,0.264 -0.186,0.494 -0.451,0.51 z"
   id="path164" />
				<path
   style="fill:#78dbbe"
   d="m 863.853,491.05 v 0 c -1.361,0.084 -2.544,-0.961 -2.628,-2.323 l -3.381,-54.783 c -0.084,-1.361 0.961,-2.544 2.323,-2.628 v 0 c 1.362,-0.084 2.544,0.961 2.628,2.323 l 3.381,54.783 c 0.084,1.362 -0.961,2.544 -2.323,2.628 z"
   id="path165" />
				<path
   style="fill:#78dbbe"
   d="m 860.146,432.651 v 0 c -0.75,0.046 -1.401,-0.529 -1.447,-1.279 l -0.414,-6.699 c -0.046,-0.749 0.529,-1.401 1.279,-1.447 v 0 c 0.75,-0.046 1.401,0.529 1.447,1.279 l 0.414,6.699 c 0.045,0.749 -0.53,1.4 -1.279,1.447 z"
   id="path166" />
				<path
   style="fill:#7a3d5f"
   d="m 864.156,457.752 -4.903,0.303 c -0.449,0.028 -0.84,-0.317 -0.868,-0.767 l -1.699,-27.522 c -0.111,-1.798 1.269,-3.36 3.067,-3.471 v 0 c 1.798,-0.111 3.36,1.269 3.471,3.067 l 1.699,27.522 c 0.027,0.45 -0.318,0.84 -0.767,0.868 z"
   id="path167" />
				<path
   style="fill:#78dbbe"
   d="m 863.3,433.993 -6.121,0.378 c -0.351,0.022 -0.656,-0.248 -0.678,-0.599 l -0.016,-0.254 c -0.022,-0.351 0.248,-0.656 0.599,-0.678 l 6.121,-0.378 c 0.351,-0.022 0.656,0.248 0.678,0.599 l 0.016,0.254 c 0.022,0.351 -0.247,0.656 -0.599,0.678 z"
   id="path168" />
				<path
   style="fill:#78dbbe"
   d="m 863.436,436.19 -6.121,0.378 c -0.351,0.022 -0.656,-0.248 -0.678,-0.599 l -0.016,-0.254 c -0.022,-0.351 0.248,-0.656 0.599,-0.678 l 6.121,-0.378 c 0.351,-0.022 0.656,0.248 0.678,0.599 l 0.016,0.254 c 0.022,0.352 -0.248,0.657 -0.599,0.678 z"
   id="path169" />
			</g>
			<g
   id="g171">
				<path
   style="fill:#5a95bd"
   d="m 888.945,448.035 v 64.5 c 0,2.061 -1.686,3.747 -3.747,3.747 h -27.751 c -2.061,0 -3.748,-1.686 -3.748,-3.747 v -64.5 c 0,-2.061 1.686,-3.748 3.748,-3.748 h 27.751 c 2.06,0 3.747,1.686 3.747,3.748 z"
   id="path170" />
				<path
   style="fill:#9abfdb"
   d="m 888.945,448.035 v 64.5 c 0,2.061 -1.686,3.747 -3.747,3.747 H 864.16 v -71.995 h 21.038 c 2.06,0 3.747,1.686 3.747,3.748 z"
   id="path171" />
			</g>
		</g>
	</g>
	<g
   id="g212">
		<path
   style="fill:#fb947b"
   d="m 507.995,397.5 h -25.502 c -3.092,0 -5.621,-2.53 -5.621,-5.621 v -53.298 c 0,-3.092 2.53,-5.621 5.621,-5.621 h 25.502 c 3.092,0 5.621,2.53 5.621,5.621 v 53.298 c 0,3.092 -2.529,5.621 -5.621,5.621 z"
   id="path173" />
		<path
   style="fill:#e46758"
   d="m 513.619,369.336 v 14.288 c -12.69,-4.928 -34.874,-26.561 -36.745,-36.693 v -8.348 c 0,-1.265 0.426,-2.441 1.138,-3.382 2.502,4.825 4.403,7.809 4.403,7.809 l 1.841,2.103 c 3.369,9.664 16.607,19.318 29.363,24.223 z"
   id="path174" />
		<g
   id="g193">
			<g
   id="g192">
				<path
   style="fill:#fb947b"
   d="m 529.486,372.655 c -14.827,0.389 -40.358,-13.562 -45.228,-27.541 l -1.844,-2.105 c 0,0 -31.178,-48.849 -6.913,-70.815 5.621,-5.087 14.587,-4.141 22.167,-4.239 l 8.601,-0.112 c 21.089,-0.286 38.539,13.857 38.782,31.419 l 0.164,12.137 0.23,17.084 c 0,0 -0.175,43.757 -15.959,44.172 z"
   id="path175" />
				<path
   style="fill:#ffffff"
   d="m 476.963,338.241 c 0,0 -0.089,0.094 -0.117,0.084 -0.033,-0.009 -0.052,-0.019 -0.061,-0.028 -0.009,-0.009 0,-0.019 0.023,-0.028 0.028,-0.01 0.08,-0.024 0.155,-0.028 z"
   id="path176" />
				<path
   style="fill:#fb947b"
   d="m 543.66,319.528 c 6.926,4.504 10.942,10.612 8.972,13.642 -1.971,3.03 -9.182,1.834 -16.108,-2.67 -6.925,-4.504 -10.942,-10.612 -8.972,-13.642 1.97,-3.03 9.182,-1.834 16.108,2.67 z"
   id="path177" />
				<path
   style="fill:#191b2a"
   d="m 479.811,268.529 c 0,0 -22.153,-0.074 -26.858,2.916 -7.37,4.684 -10.645,13.376 -8.796,21.427 0.002,0.023 0.002,0.044 0.004,0.068 l 0.046,0.135 c 0.279,1.157 0.659,2.301 1.153,3.416 l 10.43,30.908 c 2.292,14.689 12.144,20.606 21.374,20.51 0,0 16.485,-0.908 16.971,-20.874 l 2.674,-35.06 c -0.12,-12.991 -7.768,-23.542 -16.998,-23.446 z"
   id="path178" />
				<path
   style="fill:#fb947b"
   d="m 531.948,346.888 12.443,1.49 c 1.528,0.183 2.929,-0.917 3.114,-2.444 v 0 c 0.185,-1.527 -0.914,-2.926 -2.441,-3.109 l -12.443,-1.49 c -1.528,-0.183 -2.929,0.917 -3.114,2.444 v 0 c -0.186,1.527 0.913,2.926 2.441,3.109 z"
   id="path179" />
				<path
   style="fill:#fb947b"
   d="m 530.296,351.478 12.443,1.49 c 1.528,0.183 2.929,-0.917 3.114,-2.444 v 0 c 0.185,-1.527 -0.914,-2.926 -2.441,-3.109 l -12.443,-1.49 c -1.528,-0.183 -2.929,0.917 -3.114,2.444 v 0 c -0.185,1.527 0.913,2.926 2.441,3.109 z"
   id="path180" />
				<path
   style="fill:#191b2a"
   d="m 490.599,319.125 h -7.647 c -4.051,0 -7.366,-3.315 -7.366,-7.366 v -45.745 c 0,-4.051 3.315,-7.366 7.366,-7.366 h 14.3 c 4.051,0 7.366,3.315 7.366,7.366 v 39.092 c -10e-4,7.71 -6.309,14.019 -14.019,14.019 z"
   id="path181" />
				<g
   id="g188">
					<g
   id="g186">
						<path
   style="fill:#ffffff"
   d="m 543.316,312.161 c 0.7,-4.437 -2.33,-8.601 -6.767,-9.301 -4.437,-0.7 -8.601,2.33 -9.301,6.767 -0.7,4.437 2.33,8.601 6.767,9.301 4.437,0.7 8.602,-2.33 9.301,-6.767 z"
   id="path182" />
						<path
   style="fill:#4994f0"
   d="m 543.208,312.702 c 0.471,-2.987 -1.569,-5.791 -4.556,-6.262 -2.987,-0.471 -5.791,1.569 -6.262,4.556 -0.471,2.987 1.569,5.79 4.556,6.262 2.988,0.47 5.791,-1.569 6.262,-4.556 z"
   id="path183" />
						<path
   style="fill:#002539"
   d="m 542.95,312.659 c 0.365,-2.314 -1.215,-4.486 -3.529,-4.851 -2.314,-0.365 -4.486,1.215 -4.851,3.529 -0.365,2.314 1.215,4.486 3.529,4.851 2.314,0.365 4.486,-1.215 4.851,-3.529 z"
   id="path184" />
						<path
   style="fill:#ffffff"
   d="m 534.909,309.862 c 0.021,-0.135 0.597,-0.156 1.286,-0.047 0.689,0.109 1.23,0.306 1.209,0.441 -0.021,0.135 -0.597,0.156 -1.286,0.047 -0.689,-0.109 -1.23,-0.306 -1.209,-0.441 z"
   id="path185" />
						<path
   style="fill:#ffffff"
   d="m 537.92,311.68 c 0.022,-0.14 -0.073,-0.271 -0.213,-0.293 -0.14,-0.022 -0.271,0.073 -0.293,0.213 -0.022,0.14 0.073,0.271 0.213,0.293 0.14,0.022 0.271,-0.073 0.293,-0.213 z"
   id="path186" />
					</g>
					<path
   style="fill:#fb947b"
   d="m 542.153,310.168 -20.949,2.29 c -1.762,0.193 -3.36,-1.091 -3.553,-2.853 l -0.369,-3.377 c -0.193,-1.762 1.091,-3.36 2.853,-3.553 l 20.949,-2.29 c 1.762,-0.193 3.36,1.091 3.553,2.853 l 0.369,3.377 c 0.192,1.762 -1.092,3.361 -2.853,3.553 z"
   id="path187" />
					<path
   style="fill:#191b2a"
   d="m 526.857,305.393 16.637,-1.819 c 1.524,-0.167 2.634,-1.55 2.468,-3.073 l -0.048,-0.44 c -0.167,-1.524 -1.55,-2.634 -3.073,-2.467 l -16.637,1.819 c -1.524,0.167 -2.634,1.55 -2.468,3.073 l 0.048,0.44 c 0.166,1.523 1.549,2.633 3.073,2.467 z"
   id="path188" />
				</g>
				<g
   id="g191">
					<g
   id="g190">
						<path
   style="fill:#fb947b"
   d="m 490.428,333.414 -0.316,0.003 c -4.698,0.048 -8.575,-3.755 -8.617,-8.449 l -0.003,-0.316 c -0.042,-4.695 3.767,-8.575 8.465,-8.622 l 0.316,-0.003 c 4.698,-0.048 8.575,3.754 8.617,8.449 l 0.003,0.316 c 0.041,4.694 -3.768,8.574 -8.465,8.622 z"
   id="path189" />
						<path
   style="fill:#e46758"
   d="m 490.303,328.812 -0.149,0.002 c -2.211,0.022 -4.035,-1.767 -4.055,-3.976 l -10e-4,-0.148 c -0.02,-2.209 1.773,-4.035 3.983,-4.058 l 0.149,-0.001 c 2.211,-0.022 4.035,1.767 4.055,3.976 l 10e-4,0.148 c 0.02,2.209 -1.772,4.035 -3.983,4.057 z"
   id="path190" />
					</g>
				</g>
			</g>
			<path
   style="fill:#191b2a"
   d="m 500.623,245.1 c -8.211,1.947 -16.159,4.612 -19.667,5.84 -1.037,0.363 -2.08,0.709 -3.13,1.032 -10.807,3.322 -17.464,10.803 -16.767,21.765 l 0.252,3.963 c 0.297,4.666 4.105,8.219 8.462,7.895 l 73.216,4.105 c 0,0 26.982,-1.342 22.789,-41.005 -0.798,0.523 -12.022,4.129 -21.092,5.431 -3.713,0.533 -8.73,-3.182 -13.219,-5.957 -9.143,-5.651 -20.382,-5.55 -30.844,-3.069 z"
   id="path192" />
		</g>
		<g
   id="g211">
			<path
   style="fill:#e27e6a"
   d="m 594.24,642.276 10.377,5.124 c 7.664,3.785 10.838,13.152 7.053,20.815 l -47.377,95.941 c -1.239,2.509 -4.306,3.548 -6.815,2.309 L 533.167,754.46 587.425,644.585 c 1.239,-2.508 4.306,-3.548 6.815,-2.309 z"
   id="path193" />
			<g
   id="g198">
				<g
   id="g195">
					<path
   style="fill:#302e46"
   d="m 602.672,810.937 c -0.173,0.397 -0.494,0.695 -0.866,0.843 -0.374,0.154 -0.802,0.165 -1.204,-0.004 l -76.483,-32.683 -10.17,-4.344 c -1.028,-0.438 -1.506,-1.644 -1.065,-2.678 l 5.063,-11.852 c 0.755,-1.767 2.094,-4.127 3.879,-6.256 0.665,-0.801 1.39,-1.564 2.174,-2.258 3.213,-2.838 7.795,-3.479 11.708,-1.809 l 51.441,21.981 c 14.979,6.403 21.962,23.979 15.523,39.06 z"
   id="path194" />
					<path
   style="fill:#feeded"
   d="m 600.048,814.586 -88.185,-37.06 c -1.861,-0.782 -2.743,-2.944 -1.961,-4.805 v 0 c 0.782,-1.861 2.944,-2.743 4.805,-1.961 l 88.185,37.06 c 1.861,0.782 2.743,2.944 1.961,4.805 v 0 c -0.783,1.861 -2.945,2.743 -4.805,1.961 z"
   id="path195" />
				</g>
				<path
   style="fill:#feeded"
   d="m 561.937,770.303 v 0 c 0.748,0.621 1.873,0.47 2.502,-0.337 l 4.104,-5.268 c 0.628,-0.807 0.531,-1.975 -0.217,-2.596 v 0 c -0.747,-0.622 -1.873,-0.47 -2.502,0.337 l -4.104,5.268 c -0.628,0.806 -0.531,1.974 0.217,2.596 z"
   id="path196" />
				<path
   style="fill:#feeded"
   d="m 568.554,773.133 v 0 c 0.748,0.621 1.873,0.47 2.502,-0.337 l 4.105,-5.268 c 0.628,-0.807 0.531,-1.975 -0.217,-2.596 v 0 c -0.748,-0.622 -1.873,-0.47 -2.502,0.337 l -4.104,5.268 c -0.629,0.806 -0.531,1.974 0.216,2.596 z"
   id="path197" />
				<path
   style="fill:#feeded"
   d="m 575.172,775.963 v 0 c 0.748,0.621 1.873,0.47 2.502,-0.337 l 4.105,-5.268 c 0.628,-0.807 0.531,-1.975 -0.217,-2.596 v 0 c -0.748,-0.621 -1.873,-0.47 -2.502,0.337 l -4.104,5.268 c -0.629,0.806 -0.532,1.974 0.216,2.596 z"
   id="path198" />
			</g>
			<path
   style="fill:#302e46"
   d="m 464.208,619.474 v -41.445 c 0,-1.466 1.2,-2.666 2.666,-2.666 H 634.19 c 9.018,0 16.397,7.379 16.397,16.397 v 8.904 c 0,11.811 -9.664,21.474 -21.474,21.474 H 466.874 c -1.467,10e-4 -2.666,-1.198 -2.666,-2.664 z"
   id="path199" />
			<path
   style="fill:#fb947b"
   d="m 648.057,654.496 24.44,0.307 c 2.951,0.037 5.338,2.253 5.304,4.924 l -1.558,124.099 -33.958,-0.445 -0.056,-123.742 c 0.036,-2.868 2.659,-5.183 5.828,-5.143 z"
   id="path200" />
			<path
   style="fill:#302e46"
   d="m 536.554,740.893 37.377,18.356 c 1.267,0.622 2.814,0.095 3.436,-1.173 l 68.116,-138.698 c 3.829,-7.796 0.583,-17.308 -7.214,-21.137 l -25.507,-12.526 c -1.267,-0.622 -2.814,-0.095 -3.436,1.173 l -73.945,150.569 c -0.622,1.267 -0.095,2.814 1.173,3.436 z"
   id="path201" />
			<path
   style="fill:#403e55"
   d="m 487.961,627.6 v -43.439 c 0,-1.547 1.265,-2.812 2.812,-2.812 h 177.605 c 9.513,0 17.296,7.783 17.296,17.296 v 9.115 c 0,12.458 -10.193,22.652 -22.652,22.652 h -172.25 c -1.546,0 -2.811,-1.265 -2.811,-2.812 z"
   id="path202" />
			<path
   style="fill:#403e55"
   d="m 637.193,765.633 44.179,0.458 c 1.452,0.015 2.652,-1.161 2.667,-2.613 l 1.635,-157.588 c 0.072,-6.954 -5.559,-12.703 -12.513,-12.775 l -34.175,-0.354 c -1.452,-0.015 -2.652,1.161 -2.667,2.613 l -1.739,167.591 c -0.015,1.453 1.161,2.653 2.613,2.668 z"
   id="path203" />
			<path
   style="fill:#403e55"
   d="m 465.164,630.6 h 54.619 c 8.896,0 16.176,-11.053 16.176,-24.561 l -0.552,-44.525 h -86.453 l 0.035,44.525 c -10e-4,13.508 7.278,24.561 16.175,24.561 z"
   id="path204" />
			<path
   style="fill:#4eb3af"
   d="m 445.79,601.555 90.019,-20.24 c 0.784,0.022 1.442,-0.809 1.471,-1.856 l 4.251,-153.383 c 0.751,-27.084 -15.074,-49.496 -35.347,-50.058 l -29.098,0.356 c -17.69,-0.49 -25.095,17.317 -25.75,40.952 z"
   id="path205" />
			<g
   id="g210">
				<g
   id="g207">
					<path
   style="fill:#403e55"
   d="m 729.939,809.18 c -0.006,0.434 -0.186,0.832 -0.471,1.113 -0.285,0.287 -0.675,0.463 -1.112,0.463 l -83.172,-0.498 -11.059,-0.064 c -1.117,-0.006 -2.026,-0.932 -2.019,-2.056 l 0.076,-12.888 c 0.012,-1.922 0.332,-4.616 1.152,-7.27 0.303,-0.996 0.675,-1.98 1.129,-2.923 1.863,-3.861 5.838,-6.227 10.092,-6.204 l 55.939,0.334 c 16.291,0.098 29.538,13.595 29.445,29.993 z"
   id="path206" />
					<path
   style="fill:#fcfeff"
   d="m 728.934,813.561 h -95.656 c -2.018,0 -3.669,-1.651 -3.669,-3.669 v 0 c 0,-2.018 1.651,-3.669 3.669,-3.669 h 95.656 c 2.018,0 3.669,1.651 3.669,3.669 v 0 c 0,2.018 -1.651,3.669 -3.669,3.669 z"
   id="path207" />
				</g>
				<path
   style="fill:#ffffff"
   d="m 676.642,787.502 v 0 c 0.93,0.283 1.909,-0.293 2.176,-1.28 l 1.743,-6.447 c 0.267,-0.987 -0.276,-2.026 -1.206,-2.31 v 0 c -0.93,-0.283 -1.909,0.293 -2.176,1.28 l -1.743,6.447 c -0.266,0.987 0.276,2.027 1.206,2.31 z"
   id="path208" />
				<path
   style="fill:#ffffff"
   d="m 683.839,787.547 v 0 c 0.93,0.283 1.909,-0.293 2.176,-1.28 l 1.743,-6.447 c 0.267,-0.987 -0.276,-2.026 -1.206,-2.31 v 0 c -0.93,-0.283 -1.909,0.293 -2.176,1.28 l -1.743,6.447 c -0.266,0.987 0.276,2.026 1.206,2.31 z"
   id="path209" />
				<path
   style="fill:#ffffff"
   d="m 691.036,787.592 v 0 c 0.93,0.283 1.909,-0.293 2.176,-1.28 l 1.743,-6.447 c 0.267,-0.987 -0.276,-2.026 -1.206,-2.31 v 0 c -0.93,-0.283 -1.909,0.293 -2.176,1.28 l -1.743,6.447 c -0.266,0.987 0.277,2.027 1.206,2.31 z"
   id="path210" />
			</g>
		</g>
	</g>
	<g
   id="g218">
		<path
   style="fill:#507087"
   d="m 699.697,493.082 c -16.453,0.145 -30.192,8.321 -33.962,19.244 -0.947,2.743 1.976,5.375 5.927,5.341 l 56.506,-0.498 c 3.951,-0.035 6.827,-2.719 5.832,-5.445 -3.963,-10.855 -17.849,-18.787 -34.303,-18.642 z"
   id="path212" />
		<path
   style="fill:#f6977a"
   d="m 688.48,482.369 c -15.365,2.272 -26.786,14.154 -28.402,28.175 -0.406,3.521 2.788,6.413 6.478,5.867 l 52.768,-7.802 c 3.69,-0.546 5.91,-4.238 4.503,-7.491 -5.606,-12.952 -19.982,-21.02 -35.347,-18.749 z"
   id="path213" />
		<path
   style="fill:#fb947b"
   d="m 662.667,516.395 -112.853,-10.038 2.545,-28.609 133.51,16.661 -7.828,13.894 c -3.09,5.484 -9.105,8.65 -15.374,8.092 z"
   id="path214" />
		<path
   style="fill:#78dbbe"
   d="m 546.372,506.496 13.745,-9.492 c 4.894,-3.38 6.133,-10.15 2.753,-15.044 l -62.427,-90.4 c -3.38,-4.894 -10.15,-6.133 -15.044,-2.753 l -2.468,1.704 c -11.097,7.663 -13.906,23.012 -6.243,34.109 l 54.639,79.122 c 3.381,4.895 10.151,6.134 15.045,2.754 z"
   id="path215" />
		<path
   style="fill:#78dbbe"
   d="m 658.925,490.678 -3.729,32.182 c -0.127,1.077 -1.11,1.846 -2.183,1.705 l -13.257,-1.747 -7.308,-0.965 -8.774,-1.152 -7.298,-0.965 -8.774,-1.157 -7.308,-0.96 -59.155,-7.8 c -6.488,-0.857 -11.196,-6.493 -10.465,-12.521 l 1.682,-13.894 c 0.731,-6.029 6.633,-10.264 13.121,-9.411 l 59.684,7.762 7.308,0.951 8.779,1.143 7.303,0.946 8.774,1.143 7.308,0.951 12.615,1.64 c 1.054,0.135 1.799,1.096 1.677,2.149 z"
   id="path216" />
		<polygon
   style="fill:#4eb3af"
   points="632.449,521.853 637.325,485.938 644.633,486.889 639.756,522.818 "
   id="polygon216" />
		<polygon
   style="fill:#4eb3af"
   points="616.377,519.736 621.248,483.849 628.551,484.795 623.675,520.701 "
   id="polygon217" />
		<polygon
   style="fill:#4eb3af"
   points="600.295,517.619 605.162,481.755 612.47,482.706 607.602,518.579 "
   id="polygon218" />
	</g>
	<g
   id="g229">
		<path
   style="fill:#d74c6b"
   d="m 472.066,661.283 h -25.744 c -26.558,0 -48.088,-20.019 -48.088,-44.713 V 407.418 c 0,-5.987 5.219,-10.84 11.658,-10.84 h 50.517 c 6.438,0 11.658,4.853 11.658,10.84 v 180.847 c 0,10.399 6.393,19.882 16.458,24.415 l 11.149,5.021 z"
   id="path218" />
		<g
   id="g225">
			<path
   style="fill:#6f8eaa"
   d="m 513.789,805.298 v 0 c 7.764,0 14.117,-6.352 14.117,-14.117 v -86.504 c 0,-7.764 -6.352,-14.117 -14.117,-14.117 v 0 c -7.764,0 -14.116,6.352 -14.116,14.117 v 86.504 c 0,7.765 6.353,14.117 14.116,14.117 z"
   id="path219" />
			<g
   id="g223">
				<g
   id="g219">
					
						<circle
   transform="matrix(0.9871,-0.1602,0.1602,0.9871,-126.0182,80.2646)"
   style="fill:#507087"
   cx="434.84"
   cy="821.77197"
   id="ellipse219"
   r="13.405" />
				</g>
				<g
   id="g220">
					
						<circle
   transform="matrix(0.7071,-0.7071,0.7071,0.7071,-438.0454,586.0092)"
   style="fill:#507087"
   cx="488.353"
   cy="821.77197"
   id="ellipse220"
   r="13.405" />
				</g>
				<g
   id="g221">
					
						<circle
   transform="matrix(0.9871,-0.1602,0.1602,0.9871,-124.6362,97.4084)"
   style="fill:#507087"
   cx="541.86603"
   cy="821.77197"
   id="ellipse221"
   r="13.405" />
				</g>
				<g
   id="g222">
					
						<circle
   transform="matrix(0.9871,-0.1602,0.1602,0.9871,-123.9452,105.9802)"
   style="fill:#507087"
   cx="595.38"
   cy="821.77197"
   id="ellipse222"
   r="13.405" />
				</g>
			</g>
			<g
   id="g224">
				<path
   style="fill:#6f8eaa"
   d="M 436.616,816.727 H 593.15 c 7.827,0 14.23,-6.403 14.23,-14.23 v 0 c 0,-7.827 -6.403,-14.23 -14.23,-14.23 H 436.616 c -7.827,0 -14.23,6.404 -14.23,14.23 v 0 c 0,7.826 6.404,14.23 14.23,14.23 z"
   id="path223" />
			</g>
			<path
   style="fill:#507087"
   d="m 502.794,724.696 h 21.992 c 7.801,0 14.184,-6.383 14.184,-14.184 v -55.773 c 0,-7.801 -6.383,-14.184 -14.184,-14.184 h -21.992 c -7.801,0 -14.184,6.383 -14.184,14.184 v 55.773 c -0.001,7.801 6.382,14.184 14.184,14.184 z"
   id="path224" />
		</g>
		<path
   style="fill:#507087"
   d="m 442.001,676.438 h 146.218 c 6.094,0 11.035,-4.94 11.035,-11.035 v -9.236 c 0,-6.094 -4.94,-11.035 -11.035,-11.035 H 442.001 c -6.094,0 -11.035,4.94 -11.035,11.035 v 9.236 c 0,6.094 4.94,11.035 11.035,11.035 z"
   id="path225" />
		<path
   style="fill:#6f8eaa"
   d="m 565.105,565.21 h -96.112 c -3.616,0 -6.574,-2.958 -6.574,-6.574 v -7.391 c 0,-3.616 2.958,-6.574 6.574,-6.574 h 96.112 c 3.616,0 6.574,2.958 6.574,6.574 v 7.391 c 0,3.616 -2.958,6.574 -6.574,6.574 z"
   id="path226" />
		<path
   style="fill:#f27792"
   d="M 575.773,571.854 H 502.33 c -4.368,0 -7.942,-3.574 -7.942,-7.942 v -17.665 c 0,-4.368 3.574,-7.942 7.942,-7.942 h 73.443 c 8.931,0 16.239,7.307 16.239,16.239 v 1.071 c -10e-4,8.932 -7.308,16.239 -16.239,16.239 z"
   id="path227" />
		<path
   style="fill:#d74c6b"
   d="m 588.527,565.637 c -2.979,3.776 -7.593,6.216 -12.756,6.216 h -73.443 c -3.776,0 -6.956,-2.67 -7.748,-6.216 z"
   id="path228" />
		<path
   style="fill:#f27792"
   d="M 609.449,617.7 H 480.324 c -12.877,0 -23.315,-9.706 -23.315,-21.679 V 407.418 c 0,-5.987 -5.219,-10.84 -11.658,-10.84 h -50.517 c -6.438,0 -11.658,4.853 -11.658,10.84 V 616.57 c 0,24.412 21.042,44.252 47.181,44.702 0.922,0.112 1.859,0.175 2.813,0.175 h 176.279 c 12.002,0 21.821,-9.13 21.821,-20.29 v -3.168 C 631.271,626.831 621.451,617.7 609.449,617.7 Z"
   id="path229" />
	</g>
</g>
</svg>
